<?xml version="1.0" standalone="no"?>
<!DOCTYPE svg PUBLIC "-//W3C//DTD SVG 1.1//EN" "http://www.w3.org/Graphics/SVG/1.1/DTD/svg11.dtd" >
<svg xmlns="http://www.w3.org/2000/svg" xmlns:xlink="http://www.w3.org/1999/xlink" version="1.1">
<metadata></metadata>
<defs>
<font id="crashlanding_bbregular" horiz-adv-x="432" >
<font-face units-per-em="2048" ascent="1536" descent="-512" />
<missing-glyph horiz-adv-x="520" />
<glyph unicode="&#x28;C&#x29;" horiz-adv-x="1236" d="M37 428q0 117 46 224.5t125 193.5t184 143.5t226 73.5q121 14 226.5 -15.5t184.5 -96t125 -162t46 -211.5q0 -117 -46 -224.5t-125 -193.5t-184.5 -143.5t-226.5 -73.5t-226 14.5t-184 97t-125 161.5t-46 212zM156 430q0 -90 35.5 -166t98 -128t145.5 -75.5t177 -11.5 t177 57.5t144.5 113t97.5 152.5t36 175t-36 165.5t-97.5 127t-144 76t-177.5 12.5q-94 -12 -177 -57.5t-145.5 -113t-98 -152.5t-35.5 -175zM382 382q-1 52 9 104.5t30.5 101.5t49.5 90t65.5 75.5t84.5 57.5q35 18 84 29.5t90 5.5l-72 -377l-90 -27l-4 174q-35 -23 -60 -59 q-23 -33 -39 -83t-12 -126q2 -29 21.5 -48t51.5 -21.5t75 20.5t92 80l57 -60q-25 -35 -51 -61q-41 -37 -93.5 -62.5t-107.5 -31.5q-61 -8 -105 29.5t-61 89.5q-14 47 -15 99z" />
<glyph unicode="&#x28;R&#x29;" horiz-adv-x="1236" d="M37 428q0 117 46 224.5t125 193.5t184 143.5t226 73.5q121 14 226.5 -15.5t184.5 -96t125 -162t46 -211.5q0 -117 -46 -224.5t-125 -193.5t-184.5 -143.5t-226.5 -73.5t-226 14.5t-184 97t-125 161.5t-46 212zM158 430q0 -90 35.5 -166t97 -128t144.5 -75.5t177 -11.5 t177 57.5t145.5 113t98.5 152.5t36 175t-36 165.5t-98.5 127t-145 76t-177.5 12.5q-94 -12 -177 -57.5t-144.5 -113t-97 -152.5t-35.5 -175zM328 684q29 16 69.5 33.5t73.5 30.5q47 18 104.5 36.5t108.5 24.5t89 -5t48 -50q10 -33 6 -74q-4 -35 -21.5 -83t-64.5 -103 q-8 -10 -18 -21q-10 -10 -23.5 -22.5t-29.5 -28.5l227 -39l-31 -74l-342 -12l-6 -147l-86 -15l-41 381l-26 -12zM526 438q47 27 74 55.5t43 55.5q19 28 25 59q6 35 -14.5 41t-49.5 2q-33 -6 -76 -24z" />
<glyph horiz-adv-x="0" />
<glyph unicode="&#xd;" horiz-adv-x="520" />
<glyph unicode=" "  horiz-adv-x="520" />
<glyph unicode="&#x09;" horiz-adv-x="520" />
<glyph unicode="&#xa0;" horiz-adv-x="520" />
<glyph unicode="!" horiz-adv-x="430" d="M72 96q0 45 39 85t96 50q57 12 97 -11t40 -66q0 -45 -40 -85t-97 -53q-57 -10 -96 12.5t-39 67.5zM96 1014l260 73q-20 -115 -35.5 -244.5t-25.5 -240.5q-12 -129 -23 -256l-145 -45q-10 115 -15.5 241t-9.5 230q-4 123 -6 242z" />
<glyph unicode="&#x22;" horiz-adv-x="724" d="M86 965l268 79l-73 -339l-144 -48zM375 965l268 79l-74 -339l-143 -48z" />
<glyph unicode="#" horiz-adv-x="804" d="M49 94l2 234l99 37l-5 73l-96 -47l2 236l82 30l-16 291l252 72l-17 -283l94 35l-10 176l252 72l-10 -162l86 31l-12 -166l-82 -39l-8 -131l102 39l-12 -166l-99 -47l-18 -334l-143 -53l-19 303l-147 -70l-11 -180l-143 -53l-10 155zM336 434l127 47l-6 103l-115 -54z" />
<glyph unicode="$" horiz-adv-x="614" d="M20 637q-2 68 10.5 117t34 86t48 63.5t55.5 46.5q27 20 53 35l-33 152l142 67l6 -170q47 16 89 26.5t77 16.5q39 8 73 13l-71 -453l-115 -16l-27 167q-45 -10 -64 -35.5t-24 -50.5q-6 -31 2 -63q8 -27 28 -47.5t44.5 -36.5t50 -27.5t43.5 -19.5q59 -27 81 -76t26 -94 q6 -72 -14.5 -132.5t-55.5 -107.5l6 -233l-86 -47l-24 178q-47 -35 -84 -55q-20 -10 -37 -19l-68 117q37 23 65 46.5t46 39.5q23 20 37 37q37 49 31.5 86t-32 64.5t-62 46t-60.5 28.5q-66 31 -103.5 69t-57 73.5t-25 65.5t-5.5 42z" />
<glyph unicode="%" horiz-adv-x="1120" d="M37 625q0 61 28.5 120.5t78 106.5t115 80t140.5 43q92 12 167 -11.5t126 -70.5l88 141q4 0 38 -21.5t73 -47.5l102 -70l-215 -274q66 0 121 -19.5t96 -53.5t64.5 -81t23.5 -102q0 -61 -28.5 -121t-77.5 -107t-114.5 -79.5t-141.5 -43.5q-104 -14 -189.5 20t-132.5 99 l-125 -160l-135 39l226 359q-70 -4 -129.5 13t-103.5 51t-69.5 82t-25.5 108zM274 606q0 -35 35 -54.5t84 -10.5q49 6 84 35.5t35 64.5t-35 54.5t-84 13.5q-49 -8 -84 -38t-35 -65zM596 248q0 -35 35 -54.5t84 -13.5q49 8 84 38t35 65t-35 54t-84 11q-49 -6 -84 -35.5 t-35 -64.5z" />
<glyph unicode="&#x26;" horiz-adv-x="833" d="M81 589.5q5 63.5 50 123t112.5 113t147.5 97.5t153.5 77.5t130 55t79.5 25.5l-47 -282q-94 -25 -160 -54.5t-107 -58.5t-59.5 -56.5t-18.5 -49.5q2 -55 23 -79t50.5 -29t62 4t57.5 22l-10 139l250 70l-54 -711l-143 -53l-8 102q-80 -39 -141.5 -59.5t-107.5 -26.5t-79 0 t-55 18q-53 27 -68 91q-10 55 10.5 104t51.5 84q35 41 84 78q-117 63 -163 127.5t-41 128zM389 205q0 -33 18.5 -43t48 -8t62.5 13t62 23l-13 156q-72 -18 -107.5 -41.5t-51.5 -46.5q-19 -24 -19 -53z" />
<glyph unicode="'" horiz-adv-x="380" d="M61 965l267 79l-72 -339l-145 -48z" />
<glyph unicode="(" horiz-adv-x="727" d="M257 517q-1 87 11 165q31 180 135 344l283 64q-98 -137 -150.5 -257t-73 -221.5t-13 -184.5t29.5 -151q53 -158 183 -264l-134 -65q-98 98 -156.5 196.5t-86 192.5t-28.5 181z" />
<glyph unicode=")" horiz-adv-x="724" d="M39 1032l283 55q104 -119 135 -286q12 -72 11 -160t-28.5 -194.5t-86 -228.5t-156.5 -261l-134 8q129 162 183 340q23 76 29 163t-13.5 180t-73 190.5t-149.5 193.5z" />
<glyph unicode="*" horiz-adv-x="684" d="M25 760l88 160l174 -74l-11 182l173 43l-13 -201l146 97l45 -101l-127 -108l162 -68l-58 -94l-182 51l-10 -168l-99 -30l-10 145l-135 -117l-84 164l109 72z" />
<glyph unicode="+" horiz-adv-x="460" d="M33 287l4 233l102 35l-14 147q2 0 33.5 6.5t70.5 16.5l103 25l-6 -132l112 39l-12 -163l-113 -60l-10 -176l-129 -49l-14 143z" />
<glyph unicode="," horiz-adv-x="415" d="M104 219l277 39l-125 -324l-150 -24z" />
<glyph unicode="-" d="M31 233l2 234l385 135l-10 -164z" />
<glyph unicode="." horiz-adv-x="397" d="M63 80q0 45 40 85t96 50q57 12 97 -11.5t40 -68.5q0 -43 -40 -83t-97 -52q-55 -10 -95.5 12.5t-40.5 67.5z" />
<glyph unicode="/" horiz-adv-x="868" d="M8 12l641 1022q4 0 38 -21.5t73 -47.5l102 -70l-719 -922z" />
<glyph unicode="0" horiz-adv-x="1058" d="M6 410q-4 109 33 212t104.5 189t160.5 145.5t202 81.5q106 23 203.5 1.5t171 -78t120 -143t50.5 -195.5t-32 -213.5t-103.5 -190.5t-160.5 -146.5t-202 -80.5q-109 -23 -206 -1.5t-171 79t-119 144.5t-51 196zM225 403q2 -68 29 -121t70 -88.5t99.5 -49t119.5 0.5 t117.5 51t94.5 90.5t61.5 118t19.5 132.5q-4 68 -31 121t-70 88.5t-99 49t-120 -0.5q-63 -14 -117.5 -51t-94.5 -90.5t-61.5 -118t-17.5 -132.5z" />
<glyph unicode="1" horiz-adv-x="444" d="M12 903l387 117l-53 -975l-143 -53l-37 655l-90 -41z" />
<glyph unicode="2" horiz-adv-x="788" d="M23 903q156 74 286 111q55 14 111.5 23.5t105.5 6t86 -21.5t54 -57q23 -94 -15 -217q-16 -53 -47 -116t-82 -136.5t-125.5 -156.5t-181.5 -175l365 63l-35 -143l-477 -119l-19 242q121 121 209 229q37 45 72 93.5t59.5 93.5t34.5 82.5t0 64.5q-18 31 -64 29 q-20 0 -47.5 -8.5t-65.5 -27t-87 -49t-113 -79.5z" />
<glyph unicode="3" horiz-adv-x="757" d="M16 911q160 66 291 101q55 14 111.5 23t102.5 6t80 -18t46 -50q20 -63 12 -142q-8 -66 -47 -155.5t-141 -198.5q53 10 90 2q33 -8 55.5 -34.5t12.5 -90.5q-16 -78 -72 -145q-47 -59 -145.5 -120.5t-268.5 -98.5l-8 145q74 20 131 47q49 23 89 57.5t40 82.5q-8 18 -33 24 q-23 4 -66.5 -5t-121.5 -50l-6 176q63 20 117 57q45 33 83 86.5t42 132.5q-6 43 -43 52q-16 4 -42 1t-63 -16.5t-86 -42t-115 -73.5z" />
<glyph unicode="4" horiz-adv-x="745" d="M23 100l151 713l191 -18l-11 184l250 72l-31 -645l140 26l4 -127l-152 -43l-10 -217l-145 -53l-13 221zM244 346l145 27l-16 295z" />
<glyph unicode="5" horiz-adv-x="604" d="M43 938l487 123l-8 -199l-248 -90l-4 -260q84 16 152 8q57 -6 102 -34.5t43 -98.5q-4 -78 -57 -151q-23 -31 -57.5 -65t-87 -66.5t-124 -62.5t-165.5 -52l-6 145q66 16 120 41q47 23 90.5 54.5t53.5 78.5q-8 27 -33 35q-23 8 -67.5 -1t-124.5 -52z" />
<glyph unicode="6" horiz-adv-x="831" d="M153.5 257q-6.5 77 1 147.5t19.5 124t16 67.5q39 123 95.5 204t120 129t127 69.5t113.5 28.5t82 5t34 -2l-66 -450l-166 -43l-10 139q-57 -41 -87 -95.5t-46 -105.5q-18 -60 -22 -121q63 43 114 65.5t90 28t69 -2t50 -21.5q49 -35 68 -109q10 -72 -3.5 -125t-40 -90 t-62.5 -60.5t-69.5 -36.5t-61 -18t-38.5 -5q-117 -6 -185.5 32.5t-102 103t-40 141.5zM379 164q0 -29 26.5 -43t65.5 -6q39 10 66.5 35.5t27.5 54.5t-27.5 43t-66.5 4q-39 -8 -65.5 -33.5t-26.5 -54.5z" />
<glyph unicode="7" horiz-adv-x="651" d="M16 918l615 137l-277 -1049l-141 -39l125 797l-268 -92z" />
<glyph unicode="8" horiz-adv-x="782" d="M35 596q0 70 27.5 138.5t75.5 127t112.5 102.5t138.5 64q74 18 138.5 9t113.5 -41.5t78 -87t29 -124.5q0 -98 -53.5 -191t-139.5 -159q57 -18 92 -61t37 -105q0 -47 -21.5 -94t-60.5 -87t-90 -70.5t-109 -43.5q-59 -14 -110 -8t-89 29.5t-60.5 60.5t-22.5 84 q-2 57 27.5 111.5t80.5 97.5q-86 20 -140 85t-54 163zM252 586q-10 -59 19.5 -95t80.5 -26t93.5 59.5t52.5 108.5t-19.5 95t-81.5 26q-51 -10 -93 -59.5t-52 -108.5zM303 176q-6 -37 15.5 -57.5t60.5 -16.5q39 6 70.5 36t37.5 65q8 37 -14 58.5t-61 14.5q-39 -6 -70 -35.5 t-39 -64.5z" />
<glyph unicode="9" horiz-adv-x="780" d="M25 629q0 72 28.5 140.5t77.5 124.5t114.5 95t139.5 53q76 12 141.5 -3t114.5 -53t78 -96t29 -130q0 -6 -2.5 -22.5t-12.5 -75.5q-10 -47 -32.5 -118t-59.5 -160t-92 -192.5t-133 -214.5l-158 -2q23 47 45 105q20 49 45 116.5t53 153.5q-4 0 -16 -4q-74 -12 -139.5 3.5 t-114.5 53t-77.5 96t-28.5 130.5zM246 618q-12 -59 15.5 -100t78.5 -41t96.5 41t57.5 100t-14.5 100.5t-80.5 41.5q-51 0 -96 -41t-57 -101z" />
<glyph unicode=":" horiz-adv-x="391" d="M63 53q0 45 40 85t96 50q57 12 97 -11t40 -68q0 -43 -40 -83t-97 -53q-55 -10 -95.5 12.5t-40.5 67.5zM88 379q0 45 40 85t95 50q57 12 97 -11.5t40 -68.5q0 -43 -39.5 -83t-97.5 -52q-55 -10 -95 12.5t-40 67.5z" />
<glyph unicode=";" horiz-adv-x="391" d="M84 207l276 39l-124 -324l-150 -24zM88 379q0 45 40 85t95 50q57 12 97 -11.5t40 -68.5q0 -43 -39.5 -83t-97.5 -52q-55 -10 -95 12.5t-40 67.5z" />
<glyph unicode="&#x3c;" horiz-adv-x="518" d="M10 449l172 241q33 45 63.5 89t54.5 78t32 45l22 32q12 -6 29 -14q14 -6 30.5 -15.5t35.5 -17.5q41 -23 94 -47l-324 -391l252 -375l-102 -92z" />
<glyph unicode="=" horiz-adv-x="454" d="M41 139l2 236l387 135l-12 -166zM41 438l2 234l387 135l-12 -164z" />
<glyph unicode="&#x3e;" horiz-adv-x="712" d="M113 793l141 122l373 -456q-92 -139 -164 -248q-31 -47 -61.5 -91t-53.5 -79q-26 -41 -51 -76q-2 -2 -17.5 8.5t-35.5 20.5q-23 12 -51 31l253 411z" />
<glyph unicode="?" horiz-adv-x="798" d="M45 950q4 2 49 19.5t109.5 40t139.5 42t143.5 25.5t119 -7t66.5 -58q27 -96 4 -197q-10 -43 -30.5 -92t-58.5 -99.5t-95.5 -101.5t-139.5 -100l-6 -109l-135 -34l-25 233q68 18 121 55q45 31 83 83t40 136q0 25 -18 37q-16 10 -53 9t-107 -27l-14 -158l-123 -53zM141 80 q0 45 39 85t96 50q57 12 97.5 -11.5t40.5 -68.5q0 -43 -40 -83t-98 -52q-57 -10 -96 12.5t-39 67.5z" />
<glyph unicode="@" horiz-adv-x="1241" d="M39 428q0 117 46 224.5t125 193.5t184.5 143.5t226.5 73.5q121 14 226 -15.5t184 -96t125 -162t46 -211.5q0 -88 -26.5 -172t-74.5 -158t-115.5 -134.5t-147.5 -101.5l-117 72l-16 182q-86 -61 -147.5 -71.5t-102.5 0.5q-49 12 -82 49q-51 78 -49 146.5t24 121.5 q25 61 76 113q78 66 154.5 102.5t140.5 54.5q74 20 141 25l-22 -672q104 70 168.5 179.5t64.5 232.5q0 90 -36 165.5t-98.5 127t-145 76t-177.5 12.5q-94 -12 -177 -57.5t-144.5 -113t-97 -152.5t-35.5 -175q0 -86 31.5 -157.5t87 -123t131 -79t161.5 -23.5l-22 -108 q-109 0 -201 35.5t-161.5 101t-108.5 156t-39 196.5zM498 391q0 -12 7 -29.5t27.5 -23.5t58.5 5t101 54l-20 148q-45 -12 -82 -35q-31 -18 -59.5 -48t-32.5 -71z" />
<glyph unicode="A" horiz-adv-x="667" d="M6 -27l127 951l406 153l120 -975l-124 -59l-70 248l-299 -152l-43 -147zM238 377l190 82l-86 315z" />
<glyph unicode="B" horiz-adv-x="768" d="M-18 862q31 18 72.5 37t83.5 34l77 27.5t51 18.5q49 18 104.5 33.5t108.5 25t105 11.5h16q43 0 80 -9q20 -4 42 -28q20 -23 30 -66q5 -25 6 -56q0 -24 -3 -50q-7 -62 -44 -146q-12 -31 -33 -65q-16 -29 -43 -66t-66 -74q23 4 45 5q20 0 43 -6.5t41 -20.5q22 -15 22 -60 q0 -49 -24 -114q-29 -70 -98 -131q-31 -27 -73 -53.5t-98 -51t-130 -44t-166 -31.5l-63 614l-41 -14zM268 158q88 27 134.5 55.5t64.5 52.5q23 29 20 58q-1 32 -33 34q-4 0 -7 1q-30 0 -66 -11q-47 -14 -107 -43zM276 481q82 29 126 73t67 85q25 49 29 102v10q0 37 -29 47 q-17 5 -36 6q-18 0 -38 -5q-49 -10 -110 -39z" />
<glyph unicode="C" horiz-adv-x="663" d="M9 325v9q-1 76 15 152q16 80 47 155.5t74 138.5q45 66 101.5 118t130.5 89q27 14 61.5 26.5t70.5 19.5q35 7 71 11q15 1 29 1q20 0 38 -3l-112 -583l-140 -39l-6 266q-51 -35 -90 -92q-35 -49 -61 -128q-21 -64 -20 -153q0 -21 1 -43q2 -43 32 -72.5t80 -32.5h8 q47 -1 109 31q66 34 140 121l88 -92q-61 -98 -167 -161.5t-220 -75.5q-15 -2 -29 -2q-31 0 -60 9q-42 13 -75 39.5t-56.5 61.5t-35.5 76q-23 72 -24 153z" />
<glyph unicode="D" horiz-adv-x="745" d="M-29 866q51 23 113.5 52.5t130.5 56t138.5 47t136.5 24.5q13 1 26 1q50 1 98 -13q60 -18 107 -67q31 -53 39 -123q4 -26 4 -58q0 -40 -6 -90q-10 -88 -58 -200q-49 -113 -123.5 -200t-155.5 -150.5t-158 -103.5t-128 -58l-63 614l-43 -18zM279 231q92 55 143 140.5 t76 163.5q29 92 34 192q-2 61 -40 75q-24 8 -50 8q-16 0 -32 -3q-53 -8 -121 -41z" />
<glyph unicode="E" horiz-adv-x="579" d="M-8 928l319 69q59 12 117.5 25.5t104 23t73.5 14.5l27 5q0 -4 -7.5 -35t-17.5 -69q-10 -45 -24 -101l-348 -127l-7 -211l308 84l-25 -135l-287 -141l-4 -111l285 96l-17 -139l-403 -209z" />
<glyph unicode="F" horiz-adv-x="589" d="M-2 918l643 151l-43 -205l-348 -133l-4 -209l305 88l-25 -135l-286 -151l-7 -289l-133 -74z" />
<glyph unicode="G" horiz-adv-x="763" d="M9 348v9q0 76 15 151q15 80 45.5 155.5t73.5 139.5q45 66 102.5 118t131.5 89q27 14 61.5 26.5t70.5 19.5t71 10q16 1 30 1q19 0 37 -2l-61 -305q-16 2 -32 2t-32 -2q-29 -4 -63.5 -15.5t-71.5 -35.5q-51 -35 -90 -93q-35 -49 -61 -128q-20 -63 -20 -152q0 -21 1 -43 q2 -37 26.5 -65.5t65.5 -37.5q13 -2 27 -2q31 0 70 12q55 19 118 76v185l-192 -47l28 149l383 146l-79 -701l-138 -45v135q-111 -72 -237 -88q-14 -2 -28 -2q-32 0 -61 10q-42 13 -75 39.5t-56.5 61.5t-35.5 76q-23 72 -24 153z" />
<glyph unicode="H" horiz-adv-x="663" d="M10 883l258 57l-6 -459l139 39l-10 492l264 45l-92 -936l-151 -37l-6 268l-146 -67l-4 -267l-147 -45z" />
<glyph unicode="I" horiz-adv-x="339" d="M47 958l252 72l-53 -977l-144 -53z" />
<glyph unicode="J" horiz-adv-x="622" d="M29 936l575 129l-4 -184l-90 -35l-45 -828l-143 -53l-277 207l115 119l149 -96l-33 565l-233 -90z" />
<glyph unicode="K" horiz-adv-x="739" d="M20 881l238 63l8 -403l242 512l221 -72l-307 -541l430 -67l-49 -117l-541 -20l-12 -234l-135 -25z" />
<glyph unicode="L" horiz-adv-x="462" d="M43 985l229 57l-41 -790l287 100l-12 -149l-414 -215z" />
<glyph unicode="M" horiz-adv-x="1036" d="M8 -23l98 883l349 72l26 -551l80 627l352 79l115 -935l-129 -56l-158 656l-202 -772l-99 -37l-166 639l-135 -594z" />
<glyph unicode="N" horiz-adv-x="667" d="M16 883l260 57l158 -584l-37 656l265 45l-91 -936l-151 -37l-166 326l8 -392l-147 -45z" />
<glyph unicode="O" horiz-adv-x="806" d="M2 457v20q0 73 24 141q28 78 80 143.5t122.5 112t152.5 62.5q41 8 80 8t77 -8q74 -16 130.5 -59t90.5 -110t38 -149v-20q0 -70 -24 -140q-28 -78 -80 -144t-122.5 -112t-152.5 -63q-40 -8 -79 -8q-40 1 -77 9q-74 16 -130 59t-91 108.5t-39 149.5zM217 465q3 -80 59 -126 q41 -34 95 -34q19 0 39 4q37 8 69.5 30.5t56.5 55.5t38 71q12 33 12 68v11q-2 41 -18.5 73.5t-43 54t-60.5 29.5q-17 4 -34 5q-18 0 -37 -5q-39 -8 -71.5 -31.5t-57 -55t-36.5 -70.5q-11 -34 -11 -69v-11z" />
<glyph unicode="P" horiz-adv-x="747" d="M-25 852q49 23 120 53.5t147.5 61t156.5 53t151 26.5q14 1 27 1q54 -1 98 -15q54 -18 81 -71q12 -37 12 -82q0 -17 -2 -35q-4 -55 -34 -131t-103 -166q-39 -45 -92 -92q-45 -41 -110 -88.5t-142 -87.5l-11 -275l-135 -24l-63 604l-43 -19zM289 459q74 41 119 89t67 89 q27 47 39 94q2 11 2 20q0 37 -26 45q-19 7 -41 6q-16 0 -35 -3q-53 -10 -121 -41z" />
<glyph unicode="Q" horiz-adv-x="1073" d="M4 410q-1 15 -1 30q0 93 32 182q37 103 104.5 189t160.5 145.5t202 81.5q56 12 109 12q50 0 97 -10q97 -22 170.5 -78.5t118.5 -143.5t52 -195v-13q0 -91 -25 -178l104 -16l-49 -117l-116 -6q-68 -113 -175.5 -194t-238.5 -107q-56 -12 -109 -12q-50 0 -96 10 q-96 22 -170 79.5t-120 144.5t-50 196zM221 403q2 -68 30 -121t71 -88.5t100 -49.5q27 -6 57 -6t62 7q63 14 116.5 50t92.5 90l-336 -15l69 246l344 -53q5 31 5 57q0 9 -1 17q-4 68 -29.5 121t-68.5 88.5t-101 49.5q-28 6 -57 6q-31 0 -63 -7q-63 -14 -117.5 -51 t-93.5 -90.5t-61 -117.5q-19 -60 -19 -121v-12z" />
<glyph unicode="R" horiz-adv-x="790" d="M-12 852q47 20 117.5 52t149.5 62.5t161 53t152 28.5q16 1 31 0q52 0 93 -14q53 -20 76 -73q12 -35 13 -78q0 -19 -3 -39q-6 -55 -35.5 -131t-103.5 -166q-12 -14 -29 -33q-14 -16 -35.5 -35.5t-48.5 -42.5l361 -61l-49 -119l-541 -20l-10 -232l-135 -24l-64 604l-43 -19 zM299 459q74 41 119 89t67 89q27 47 39 94q2 11 2 20q0 37 -26 45q-19 7 -41 6q-16 0 -35 -3q-53 -10 -121 -41z" />
<glyph unicode="S" horiz-adv-x="573" d="M10 645v23q0 94 29 156q33 70 83 112.5t105.5 66t98.5 41.5q47 16 89 26.5t77 16.5q39 8 73 11l-71 -451l-115 -18l-27 170q-45 -12 -64.5 -37t-23.5 -49q-4 -14 -4 -30.5t4 -33.5q8 -27 28.5 -47t45 -36.5t49.5 -29t43 -20.5q59 -25 82 -74t27 -96v-13q1 -31 -7 -67 q-10 -43 -39.5 -92t-82 -103.5t-131.5 -111.5l-35 -27l-68 117q37 23 64.5 45.5t46.5 38.5q23 20 37 39q32 43 32 76v10q-6 37 -32.5 63.5t-62.5 45t-60 30.5q-66 31 -104 68t-57.5 72.5t-24.5 65.5t-5 42z" />
<glyph unicode="T" horiz-adv-x="608" d="M-2 936l606 129l-4 -184l-180 -64l-37 -776l-152 -61l-38 755l-181 -65z" />
<glyph unicode="U" horiz-adv-x="638" d="M-8 885l260 57l-10 -594l139 166l-8 498l264 47l-90 -938l-152 -35l-4 188l-160 -241l-139 -58z" />
<glyph unicode="V" horiz-adv-x="641" d="M-33 887l213 100l146 -690l96 690l244 57l-232 -976l-178 -62z" />
<glyph unicode="W" horiz-adv-x="1058" d="M-23 872l240 113l78 -768l90 805l287 80l100 -715l57 657l263 33l-224 -932l-180 -39l-143 519l-152 -613l-200 -61z" />
<glyph unicode="X" horiz-adv-x="661" d="M-14 -16l229 503l-219 326l188 172l138 -262l137 301l262 -12l-287 -506l195 -371l-101 -108l-198 292l-189 -331z" />
<glyph unicode="Y" horiz-adv-x="641" d="M-14 805l174 180l164 -352l153 409l240 -16q0 -2 -21.5 -47t-55.5 -118t-77 -165t-88 -188l-242 -512l-147 12l150 395z" />
<glyph unicode="Z" horiz-adv-x="569" d="M-6 913l668 152l-408 -852l278 102l-16 -139l-405 -217l-56 186l209 588l-231 -59z" />
<glyph unicode="[" horiz-adv-x="491" d="M47 1110l416 119l-12 -160l-154 -57l-47 -1059l160 39l-9 -127l-303 -101z" />
<glyph unicode="\" horiz-adv-x="868" d="M6 895l103 70q39 27 72.5 48t37.5 21l641 -1022l-135 -39z" />
<glyph unicode="]" horiz-adv-x="485" d="M23 1163l415 131l-51 -1376l-301 -80l-10 119l160 59l-48 1031l-153 -37z" />
<glyph unicode="^" horiz-adv-x="497" d="M23 735l225 322l239 -207l-75 -66l-162 62l-144 -137z" />
<glyph unicode="_" horiz-adv-x="716" d="M31 -186l2 233l661 191l-10 -164z" />
<glyph unicode="`" horiz-adv-x="391" d="M23 920l81 135l254 -166l-51 -76z" />
<glyph unicode="a" horiz-adv-x="659" d="M6 -27l127 951l406 153l120 -975l-124 -59l-70 248l-299 -152l-43 -147zM238 377l190 82l-86 315z" />
<glyph unicode="b" horiz-adv-x="763" d="M-18 862q31 18 72.5 37t83.5 34l77 27.5t51 18.5q49 18 104.5 33.5t108.5 25t105 11.5h16q43 0 80 -9q20 -4 42 -28q20 -23 30 -66q5 -25 6 -56q0 -24 -3 -50q-7 -62 -44 -146q-12 -31 -33 -65q-16 -29 -43 -66t-66 -74q23 4 45 5q20 0 43 -6.5t41 -20.5q22 -15 22 -60 q0 -49 -24 -114q-29 -70 -98 -131q-31 -27 -73 -53.5t-98 -51t-130 -44t-166 -31.5l-63 614l-41 -14zM268 158q88 27 134.5 55.5t64.5 52.5q23 29 20 58q-1 32 -33 34q-4 0 -7 1q-30 0 -66 -11q-47 -14 -107 -43zM276 481q82 29 126 73t67 85q25 49 29 102v10q0 37 -29 47 q-17 5 -36 6q-18 0 -38 -5q-49 -10 -110 -39z" />
<glyph unicode="c" horiz-adv-x="667" d="M9 325v9q-1 76 15 152q16 80 47 155.5t74 138.5q45 66 101.5 118t130.5 89q27 14 61.5 26.5t70.5 19.5q35 7 71 11q15 1 29 1q20 0 38 -3l-112 -583l-140 -39l-6 266q-51 -35 -90 -92q-35 -49 -61 -128q-21 -64 -20 -153q0 -21 1 -43q2 -43 32 -72.5t80 -32.5h8 q47 -1 109 31q66 34 140 121l88 -92q-61 -98 -167 -161.5t-220 -75.5q-15 -2 -29 -2q-31 0 -60 9q-42 13 -75 39.5t-56.5 61.5t-35.5 76q-23 72 -24 153z" />
<glyph unicode="d" horiz-adv-x="739" d="M-29 866q51 23 113.5 52.5t130.5 56t138.5 47t136.5 24.5q13 1 26 1q50 1 98 -13q60 -18 107 -67q31 -53 39 -123q4 -26 4 -58q0 -40 -6 -90q-10 -88 -58 -200q-49 -113 -123.5 -200t-155.5 -150.5t-158 -103.5t-128 -58l-63 614l-43 -18zM279 231q92 55 143 140.5 t76 163.5q29 92 34 192q-2 61 -40 75q-24 8 -50 8q-16 0 -32 -3q-53 -8 -121 -41z" />
<glyph unicode="e" horiz-adv-x="579" d="M-8 928l319 69q59 12 117.5 25.5t104 23t73.5 14.5l27 5q0 -4 -7.5 -35t-17.5 -69q-10 -45 -24 -101l-348 -127l-7 -211l308 84l-25 -135l-287 -141l-4 -111l285 96l-17 -139l-403 -209z" />
<glyph unicode="f" horiz-adv-x="589" d="M-2 918l643 151l-43 -205l-348 -133l-4 -209l305 88l-25 -135l-286 -151l-7 -289l-133 -74z" />
<glyph unicode="g" horiz-adv-x="763" d="M9 348v9q0 76 15 151q15 80 45.5 155.5t73.5 139.5q45 66 102.5 118t131.5 89q27 14 61.5 26.5t70.5 19.5t71 10q16 1 30 1q19 0 37 -2l-61 -305q-16 2 -32 2t-32 -2q-29 -4 -63.5 -15.5t-71.5 -35.5q-51 -35 -90 -93q-35 -49 -61 -128q-20 -63 -20 -152q0 -21 1 -43 q2 -37 26.5 -65.5t65.5 -37.5q13 -2 27 -2q31 0 70 12q55 19 118 76v185l-192 -47l28 149l383 146l-79 -701l-138 -45v135q-111 -72 -237 -88q-14 -2 -28 -2q-32 0 -61 10q-42 13 -75 39.5t-56.5 61.5t-35.5 76q-23 72 -24 153z" />
<glyph unicode="h" horiz-adv-x="651" d="M10 883l258 57l-6 -459l139 39l-10 492l264 45l-92 -936l-151 -37l-6 268l-146 -67l-4 -267l-147 -45z" />
<glyph unicode="i" horiz-adv-x="333" d="M47 958l252 72l-53 -977l-144 -53z" />
<glyph unicode="j" horiz-adv-x="598" d="M29 936l575 129l-4 -184l-90 -35l-45 -828l-143 -53l-277 207l115 119l149 -96l-33 565l-233 -90z" />
<glyph unicode="k" horiz-adv-x="729" d="M20 881l238 63l8 -403l242 512l221 -72l-307 -541l430 -67l-49 -117l-541 -20l-12 -234l-135 -25z" />
<glyph unicode="l" horiz-adv-x="464" d="M43 985l229 57l-41 -790l287 100l-12 -149l-414 -215z" />
<glyph unicode="m" horiz-adv-x="1019" d="M8 -23l98 883l349 72l26 -551l80 627l352 79l115 -935l-129 -56l-158 656l-202 -772l-99 -37l-166 639l-135 -594z" />
<glyph unicode="n" horiz-adv-x="667" d="M16 883l260 57l158 -584l-37 656l265 45l-91 -936l-151 -37l-166 326l8 -392l-147 -45z" />
<glyph unicode="o" horiz-adv-x="1046" d="M6 410v21q0 98 33 191q37 103 104.5 189t160.5 145.5t202 81.5q55 12 107 12q49 0 97 -10q98 -22 171 -78.5t119.5 -143t50.5 -195.5v-22q0 -97 -32 -191q-36 -104 -103.5 -190.5t-160.5 -147t-202 -80.5q-56 -12 -109 -12q-50 0 -97 10q-97 22 -171 79.5t-119 144.5 t-51 196zM225 403q2 -68 29 -121t70 -88q44 -36 100 -50q28 -7 57 -6q30 0 62 7q63 14 117.5 51t94.5 90q39 54 61 118q20 59 20 121v12q-4 68 -31 121t-70 88.5t-99 49.5q-27 7 -57 6q-31 0 -63 -7q-63 -14 -117.5 -51t-94.5 -90.5t-62 -117.5q-18 -54 -17 -112 q-1 -10 0 -21z" />
<glyph unicode="p" horiz-adv-x="720" d="M-25 852q49 23 120 53.5t147.5 61t156.5 53t151 26.5q14 1 27 1q55 0 98 -15q54 -18 81 -71q12 -37 12 -82q0 -17 -2 -35q-4 -55 -34 -131t-103 -166q-39 -45 -92 -92q-45 -41 -110 -88.5t-142 -87.5l-11 -275l-135 -24l-63 604l-43 -19zM289 459q74 41 119 89t67 89 q27 47 39 94q2 11 2 20q0 35 -26 45q-18 6 -41 6q-17 0 -35 -3q-53 -10 -121 -41z" />
<glyph unicode="q" horiz-adv-x="1081" d="M4 410q-1 15 -1 30q0 93 32 182q37 103 104.5 189t160.5 145.5t202 81.5q56 12 109 12q50 0 97 -10q97 -22 170.5 -78.5t118.5 -143.5t52 -195v-13q0 -91 -25 -178l104 -16l-49 -117l-116 -6q-68 -113 -175.5 -194t-238.5 -107q-56 -12 -109 -12q-50 0 -96 10 q-96 22 -170 79.5t-120 144.5t-50 196zM221 403q2 -68 30 -121t71 -88.5t100 -49.5q27 -6 57 -6t62 7q63 14 116.5 50t92.5 90l-336 -15l69 246l344 -53q5 31 5 57q0 9 -1 17q-4 68 -29.5 121t-68.5 88.5t-101 49.5q-28 6 -57 6q-31 0 -63 -7q-63 -14 -117.5 -51 t-93.5 -90.5t-61 -117.5q-19 -60 -19 -121v-12z" />
<glyph unicode="r" horiz-adv-x="782" d="M-12 852q47 20 117.5 52t149.5 62.5t161 53t152 28.5q16 1 31 0q52 0 93 -14q53 -20 76 -73q12 -35 13 -78q0 -19 -3 -39q-6 -55 -35.5 -131t-103.5 -166q-12 -14 -29 -33q-14 -16 -35.5 -35.5t-48.5 -42.5l361 -61l-49 -119l-541 -20l-10 -232l-135 -24l-64 604l-43 -19 zM299 459q74 41 119 89t67 89q27 47 39 94q2 11 2 20q0 37 -26 45q-19 7 -41 6q-16 0 -35 -3q-53 -10 -121 -41z" />
<glyph unicode="s" horiz-adv-x="571" d="M10 645v23q0 94 29 156q33 70 83 112.5t105.5 66t98.5 41.5q47 16 89 26.5t77 16.5q39 8 73 11l-71 -451l-115 -18l-27 170q-45 -12 -64.5 -37t-23.5 -49q-4 -14 -4 -30.5t4 -33.5q8 -27 28.5 -47t45 -36.5t49.5 -29t43 -20.5q59 -25 82 -74t27 -96v-13q1 -31 -7 -67 q-10 -43 -39.5 -92t-82 -103.5t-131.5 -111.5l-35 -27l-68 117q37 23 64.5 45.5t46.5 38.5q23 20 37 39q32 43 32 76v10q-6 37 -32.5 63.5t-62.5 45t-60 30.5q-66 31 -104 68t-57.5 72.5t-24.5 65.5t-5 42z" />
<glyph unicode="t" horiz-adv-x="579" d="M-2 936l606 129l-4 -184l-180 -64l-37 -776l-152 -61l-38 755l-181 -65z" />
<glyph unicode="u" horiz-adv-x="641" d="M-8 885l260 57l-10 -594l139 166l-8 498l264 47l-90 -938l-152 -35l-4 188l-160 -241l-139 -58z" />
<glyph unicode="v" horiz-adv-x="641" d="M-33 887l213 100l146 -690l96 690l244 57l-232 -976l-178 -62z" />
<glyph unicode="w" horiz-adv-x="1046" d="M-23 872l240 113l78 -768l90 805l287 80l100 -715l57 657l263 33l-224 -932l-180 -39l-143 519l-152 -613l-200 -61z" />
<glyph unicode="x" horiz-adv-x="651" d="M-14 -16l229 503l-219 326l188 172l138 -262l137 301l262 -12l-287 -506l195 -371l-101 -108l-198 292l-189 -331z" />
<glyph unicode="y" horiz-adv-x="632" d="M-14 805l174 180l164 -352l153 409l240 -16q0 -2 -21.5 -47t-55.5 -118t-77 -165t-88 -188l-242 -512l-147 12l150 395z" />
<glyph unicode="z" horiz-adv-x="579" d="M-6 913l668 152l-408 -852l278 102l-16 -139l-405 -217l-56 186l209 588l-231 -59z" />
<glyph unicode="{" horiz-adv-x="954" d="M47 283l2 233l656 131l-13 -166zM283 827l120 201l431 -115l-95 -137zM399 129l430 236l29 -164l-405 -299z" />
<glyph unicode="|" horiz-adv-x="329" d="M39 1057l250 71l-53 -1228l-144 -54z" />
<glyph unicode="}" horiz-adv-x="980" d="M119 786l405 301l54 -227l-431 -235zM143 76l95 137l456 -51l-121 -203zM274 342l11 164l645 201l-2 -234z" />
<glyph unicode="~" horiz-adv-x="481" d="M31 510q16 33 41 59q23 23 56.5 44.5t82.5 27.5q14 -2 29 -10q12 -8 26.5 -23.5t28.5 -44.5q14 -16 33 -20q16 -4 37.5 4t50.5 43l39 -129q-27 -29 -56 -49q-25 -16 -57.5 -26.5t-67.5 -0.5q-16 20 -34 37q-16 14 -33 22.5t-33 4.5q-8 -6 -16 -15q-8 -8 -17.5 -20.5 t-19.5 -28.5z" />
<glyph unicode="&#xa2;" horiz-adv-x="532" d="M42 345q-1 56 9 111.5t32.5 108.5t53.5 97q39 59 92 102l-24 217l119 37l-5 -201q37 16 83.5 25.5t84.5 3.5l-79 -408l-97 -28l-4 188q-37 -25 -63 -63q-23 -35 -41.5 -90.5t-14.5 -137.5q2 -31 22.5 -52.5t55.5 -22.5t81 23t99 85l62 -64q-25 -33 -53 -65 q-37 -35 -88 -61l-7 -154l-55 -49l-29 170q-10 -4 -19 -5t-19 -3q-68 -8 -115 32.5t-64 96.5q-16 51 -17 107z" />
<glyph unicode="&#xa3;" horiz-adv-x="630" d="M51 258l2 236l35 12q-2 72 -12 147.5t-2 145.5q10 90 78.5 157.5t154.5 87.5q35 8 79 9.5t87 -17t78 -62.5t51 -126q-35 -23 -83 -44.5t-118 -49.5q2 23 -1 57.5t-29 44.5q-16 6 -31.5 1t-27 -33.5t-17.5 -87t-4 -158.5l149 51l-12 -166l-147 -80l-7 -147l287 100 l-14 -150l-412 -215l-24 320z" />
<glyph unicode="&#xad;" d="M31 233l2 234l385 135l-10 -164z" />
<glyph unicode="&#xff;" horiz-adv-x="268" />
<glyph unicode="&#x2000;" horiz-adv-x="682" />
<glyph unicode="&#x2001;" horiz-adv-x="1365" />
<glyph unicode="&#x2002;" horiz-adv-x="682" />
<glyph unicode="&#x2003;" horiz-adv-x="1365" />
<glyph unicode="&#x2004;" horiz-adv-x="455" />
<glyph unicode="&#x2005;" horiz-adv-x="341" />
<glyph unicode="&#x2006;" horiz-adv-x="227" />
<glyph unicode="&#x2007;" horiz-adv-x="227" />
<glyph unicode="&#x2008;" horiz-adv-x="170" />
<glyph unicode="&#x2009;" horiz-adv-x="273" />
<glyph unicode="&#x200a;" horiz-adv-x="75" />
<glyph unicode="&#x2010;" d="M31 233l2 234l385 135l-10 -164z" />
<glyph unicode="&#x2011;" d="M31 233l2 234l385 135l-10 -164z" />
<glyph unicode="&#x2012;" d="M31 233l2 234l385 135l-10 -164z" />
<glyph unicode="&#x2013;" horiz-adv-x="907" d="M31 233l2 234l385 135l-10 -164zM469 225l2 234l385 135l-10 -164z" />
<glyph unicode="&#x2014;" horiz-adv-x="894" d="M31 233l2 234l385 135l-10 -164zM469 225l2 234l385 135l-10 -164z" />
<glyph unicode="&#x2018;" horiz-adv-x="378" d="M61 965l267 79l-72 -339l-145 -48z" />
<glyph unicode="&#x2019;" horiz-adv-x="378" d="M61 965l267 79l-72 -339l-145 -48z" />
<glyph unicode="&#x201c;" horiz-adv-x="690" d="M86 965l268 79l-73 -339l-144 -48zM375 965l268 79l-74 -339l-143 -48z" />
<glyph unicode="&#x201d;" horiz-adv-x="706" d="M86 965l268 79l-73 -339l-144 -48zM375 965l268 79l-74 -339l-143 -48z" />
<glyph unicode="&#x2026;" horiz-adv-x="1191" d="M63 53q0 45 40 85t96 50q57 12 97 -11t40 -68q0 -43 -40 -83t-97 -53q-55 -10 -95.5 12.5t-40.5 67.5zM461 53q0 45 40 85t95 50q57 12 97 -11t40 -68q0 -43 -40 -83t-97 -53q-55 -10 -95 12.5t-40 67.5zM858 53q0 45 40 85t95 50q57 12 97 -11t40 -68q0 -43 -39.5 -83 t-97.5 -53q-55 -10 -95 12.5t-40 67.5z" />
<glyph unicode="&#x202f;" horiz-adv-x="273" />
<glyph unicode="&#x205f;" horiz-adv-x="341" />
<glyph unicode="&#x20ac;" horiz-adv-x="815" d="M23 135l2 146l90 18v47l-92 -27l2 144l106 22q16 78 47 151t72 134q45 66 101.5 118t129.5 89q27 14 62 26.5t70.5 19.5t71.5 10t67 -1l-58 -299q-66 0 -115 -16.5t-85 -38.5q-20 -12 -41 -33q-18 -16 -39 -44t-39 -64l203 43l-13 -103l-233 -67q-2 -16 -4 -33t-4 -35 l254 55l-13 -102l-235 -70q12 -35 46 -54t82 -15t107.5 39.5t126.5 113.5l88 -92q-33 -51 -75 -92q-61 -59 -143.5 -98t-168.5 -50q-47 -6 -89 7.5t-74.5 40t-56 61.5t-36.5 76q0 4 -2 8z" />
<glyph unicode="&#x2122;" horiz-adv-x="1130" d="M72 971l381 82l-2 -117l-113 -39l-25 -489l-94 -37l-24 475l-113 -41zM401 369l64 555l217 45l18 -346l50 395l221 49l71 -588l-79 -35l-101 412l-127 -487l-61 -23l-105 404l-84 -375z" />
<glyph unicode="&#x25fc;" horiz-adv-x="1024" d="M0 0v1024h1024v-1024h-1024z" />
</font>
</defs>
</svg>
